<svg xmlns="http://www.w3.org/2000/svg" xmlns:xlink="http://www.w3.org/1999/xlink" width="1232" zoomAndPan="magnify"
     viewBox="135 592 1232 318" height="318" preserveAspectRatio="xMidYMid meet" version="1.0">
    <defs>
        <g/>
    </defs>
    <g fill="#111827" fill-opacity="1">
        <g transform="translate(151.762887, 876.374905)">
            <g>
                <path d="M 21.34375 0.703125 C 7.113281 0.703125 0 -1.863281 0 -7 C 0 -7.925781 0.46875 -10.023438 1.40625 -13.296875 L 78.375 -238.25 C 80.238281 -243.144531 86.882812 -245.59375 98.3125 -245.59375 L 116.5 -245.59375 C 128.164062 -245.59375 134.8125 -243.144531 136.4375 -238.25 L 213.421875 -13.296875 C 214.117188 -10.960938 214.46875 -8.863281 214.46875 -7 C 214.46875 -1.863281 208.632812 0.703125 196.96875 0.703125 L 181.578125 0.703125 C 170.148438 0.703125 163.617188 -1.742188 161.984375 -6.640625 L 147.984375 -49.328125 L 65.421875 -49.328125 L 51.421875 -6.640625 C 49.796875 -1.742188 44.429688 0.703125 35.328125 0.703125 Z M 132.953125 -95.515625 L 113 -157.78125 C 111.375 -162.445312 109.625 -169.910156 107.75 -180.171875 L 106.359375 -180.171875 C 106.117188 -178.773438 105.59375 -175.6875 104.78125 -170.90625 C 103.96875 -166.125 102.742188 -161.75 101.109375 -157.78125 L 80.46875 -95.515625 Z M 132.953125 -95.515625 "/>
            </g>
        </g>
    </g>
    <g fill="#111827" fill-opacity="1">
        <g transform="translate(347.329856, 876.374905)">
            <g>
                <path d="M 78.015625 2.796875 C 43.960938 2.796875 26.9375 -16.09375 26.9375 -53.875 L 26.9375 -142.046875 L 21.34375 -142.046875 C 17.613281 -142.046875 14.929688 -143.441406 13.296875 -146.234375 C 11.660156 -149.035156 10.84375 -153.46875 10.84375 -159.53125 L 10.84375 -165.484375 C 10.84375 -171.546875 11.660156 -175.972656 13.296875 -178.765625 C 14.929688 -181.566406 17.613281 -182.96875 21.34375 -182.96875 L 26.9375 -182.96875 L 31.484375 -216.21875 C 32.648438 -223.675781 38.945312 -227.40625 50.375 -227.40625 L 61.21875 -227.40625 C 72.882812 -227.40625 78.71875 -223.675781 78.71875 -216.21875 L 78.71875 -182.96875 L 95.859375 -182.96875 C 99.585938 -182.96875 102.269531 -181.566406 103.90625 -178.765625 C 105.539062 -175.972656 106.359375 -171.546875 106.359375 -165.484375 L 106.359375 -159.53125 C 106.359375 -153.46875 105.539062 -149.035156 103.90625 -146.234375 C 102.269531 -143.441406 99.585938 -142.046875 95.859375 -142.046875 L 78.71875 -142.046875 L 78.71875 -53.171875 C 78.71875 -47.804688 79.707031 -43.957031 81.6875 -41.625 C 83.675781 -39.300781 86.882812 -38.140625 91.3125 -38.140625 C 92.476562 -38.140625 94.050781 -38.367188 96.03125 -38.828125 C 98.019531 -39.296875 99.597656 -39.53125 100.765625 -39.53125 C 102.859375 -39.53125 104.722656 -37.78125 106.359375 -34.28125 C 107.992188 -30.78125 109.273438 -26.929688 110.203125 -22.734375 C 111.140625 -18.535156 111.609375 -15.738281 111.609375 -14.34375 C 111.609375 -2.914062 100.410156 2.796875 78.015625 2.796875 Z M 78.015625 2.796875 "/>
            </g>
        </g>
    </g>
    <g fill="#111827" fill-opacity="1">
        <g transform="translate(448.087019, 876.374905)">
            <g>
                <path d="M 106 2.796875 C 75.21875 2.796875 52.300781 -5.421875 37.25 -21.859375 C 22.207031 -38.304688 14.6875 -61.109375 14.6875 -90.265625 C 14.6875 -123.148438 22.207031 -147.289062 37.25 -162.6875 C 52.300781 -178.082031 73.117188 -185.78125 99.703125 -185.78125 C 125.597656 -185.78125 144.664062 -177.378906 156.90625 -160.578125 C 169.15625 -143.785156 175.28125 -122.097656 175.28125 -95.515625 C 175.28125 -92.710938 172.890625 -88.570312 168.109375 -83.09375 C 163.328125 -77.613281 159.769531 -74.875 157.4375 -74.875 L 68.21875 -74.875 C 69.382812 -61.570312 73.347656 -52.125 80.109375 -46.53125 C 86.878906 -40.9375 96.328125 -38.140625 108.453125 -38.140625 C 114.984375 -38.140625 120.929688 -38.894531 126.296875 -40.40625 C 131.660156 -41.925781 137.257812 -43.851562 143.09375 -46.1875 C 146.820312 -48.050781 149.390625 -48.984375 150.796875 -48.984375 C 153.117188 -48.984375 155.738281 -47.289062 158.65625 -43.90625 C 161.570312 -40.519531 164.019531 -36.671875 166 -32.359375 C 167.988281 -28.046875 168.984375 -24.722656 168.984375 -22.390625 C 168.984375 -17.023438 165.367188 -12.414062 158.140625 -8.5625 C 150.910156 -4.71875 142.28125 -1.863281 132.25 0 C 122.21875 1.863281 113.46875 2.796875 106 2.796875 Z M 124.90625 -109.5 C 124.90625 -120.226562 122.804688 -128.800781 118.609375 -135.21875 C 114.410156 -141.632812 108.109375 -144.84375 99.703125 -144.84375 C 82.453125 -144.84375 71.957031 -133.0625 68.21875 -109.5 Z M 124.90625 -109.5 "/>
            </g>
        </g>
    </g>
    <g fill="#111827" fill-opacity="1">
        <g transform="translate(617.764934, 876.374905)">
            <g>
                <path d="M 42.6875 0.703125 C 28.6875 0.703125 21.6875 -3.03125 21.6875 -10.5 L 21.6875 -121.40625 C 21.6875 -131.664062 21.394531 -139.535156 20.8125 -145.015625 C 20.226562 -150.492188 19.472656 -156.617188 18.546875 -163.390625 C 17.847656 -166.648438 17.5 -169.097656 17.5 -170.734375 C 17.5 -174.460938 22.21875 -177.257812 31.65625 -179.125 C 41.101562 -180.988281 49.441406 -181.921875 56.671875 -181.921875 C 60.867188 -181.921875 63.785156 -180.347656 65.421875 -177.203125 C 67.054688 -174.054688 68.28125 -170.613281 69.09375 -166.875 C 69.914062 -163.144531 70.441406 -160.582031 70.671875 -159.1875 C 76.265625 -166.644531 83.726562 -172.941406 93.0625 -178.078125 C 102.394531 -183.210938 112.304688 -185.78125 122.796875 -185.78125 C 140.296875 -185.78125 153.242188 -181.171875 161.640625 -171.953125 C 170.035156 -162.742188 174.234375 -148.457031 174.234375 -129.09375 L 174.234375 -10.5 C 174.234375 -3.03125 167.234375 0.703125 153.234375 0.703125 L 143.4375 0.703125 C 129.445312 0.703125 122.453125 -3.03125 122.453125 -10.5 L 122.453125 -121.40625 C 122.453125 -128.632812 120.816406 -134.054688 117.546875 -137.671875 C 114.285156 -141.285156 108.921875 -143.09375 101.453125 -143.09375 C 95.160156 -143.09375 89.625 -141.050781 84.84375 -136.96875 C 80.0625 -132.882812 76.269531 -128.160156 73.46875 -122.796875 L 73.46875 -10.5 C 73.46875 -3.03125 66.472656 0.703125 52.484375 0.703125 Z M 42.6875 0.703125 "/>
            </g>
        </g>
    </g>
    <g fill="#111827" fill-opacity="1">
        <g transform="translate(793.740172, 876.374905)">
            <g>
                <path d="M 80.125 2.796875 C 67.519531 2.796875 56.257812 -0.875 46.34375 -8.21875 C 36.4375 -15.570312 28.679688 -26.359375 23.078125 -40.578125 C 17.484375 -54.804688 14.6875 -71.832031 14.6875 -91.65625 C 14.6875 -120.582031 21.160156 -143.5 34.109375 -160.40625 C 47.054688 -177.320312 65.191406 -185.78125 88.515625 -185.78125 C 102.273438 -185.78125 114.171875 -182.164062 124.203125 -174.9375 L 124.203125 -252.59375 C 124.203125 -260.0625 131.195312 -263.796875 145.1875 -263.796875 L 154.984375 -263.796875 C 168.984375 -263.796875 175.984375 -260.0625 175.984375 -252.59375 L 175.984375 -61.578125 C 175.984375 -50.847656 176.273438 -42.679688 176.859375 -37.078125 C 177.441406 -31.484375 178.195312 -25.304688 179.125 -18.546875 C 179.820312 -15.515625 180.171875 -12.945312 180.171875 -10.84375 C 180.171875 -7.113281 175.445312 -4.316406 166 -2.453125 C 156.5625 -0.585938 148.226562 0.34375 141 0.34375 C 136.800781 0.34375 133.882812 -1.34375 132.25 -4.71875 C 130.613281 -8.101562 129.382812 -11.71875 128.5625 -15.5625 C 127.75 -19.414062 127.226562 -22.039062 127 -23.4375 C 122.800781 -15.738281 116.5625 -9.441406 108.28125 -4.546875 C 100 0.347656 90.613281 2.796875 80.125 2.796875 Z M 95.515625 -39.53125 C 106.710938 -39.53125 116.273438 -46.410156 124.203125 -60.171875 L 124.203125 -138.1875 C 116.273438 -142.625 108.109375 -144.84375 99.703125 -144.84375 C 78.015625 -144.84375 67.171875 -127.113281 67.171875 -91.65625 C 67.171875 -56.90625 76.617188 -39.53125 95.515625 -39.53125 Z M 95.515625 -39.53125 "/>
            </g>
        </g>
    </g>
    <g fill="#4f46e5" fill-opacity="1">
        <g transform="translate(972.520629, 876.374905)">
            <g>
                <path d="M 21.34375 0.703125 C 7.113281 0.703125 0 -1.863281 0 -7 C 0 -7.925781 0.46875 -10.023438 1.40625 -13.296875 L 78.375 -238.25 C 80.238281 -243.144531 86.882812 -245.59375 98.3125 -245.59375 L 116.5 -245.59375 C 128.164062 -245.59375 134.8125 -243.144531 136.4375 -238.25 L 213.421875 -13.296875 C 214.117188 -10.960938 214.46875 -8.863281 214.46875 -7 C 214.46875 -1.863281 208.632812 0.703125 196.96875 0.703125 L 181.578125 0.703125 C 170.148438 0.703125 163.617188 -1.742188 161.984375 -6.640625 L 147.984375 -49.328125 L 65.421875 -49.328125 L 51.421875 -6.640625 C 49.796875 -1.742188 44.429688 0.703125 35.328125 0.703125 Z M 132.953125 -95.515625 L 113 -157.78125 C 111.375 -162.445312 109.625 -169.910156 107.75 -180.171875 L 106.359375 -180.171875 C 106.117188 -178.773438 105.59375 -175.6875 104.78125 -170.90625 C 103.96875 -166.125 102.742188 -161.75 101.109375 -157.78125 L 80.46875 -95.515625 Z M 132.953125 -95.515625 "/>
            </g>
        </g>
    </g>
    <g fill="#ffffff" fill-opacity="1">
        <g transform="translate(1125.227624, 876.374905)">
            <g>
                <path d="M 23.089844 13.121094 C 17.355469 13.121094 12.433594 10.417969 8.320312 5.015625 C 6.121094 2.125 4.015625 -1.816406 2 -6.816406 C -1.78125 -16.203125 -3.671875 -24.308594 -3.671875 -31.136719 C -3.671875 -34.601562 -2.980469 -37.722656 -1.589844 -40.503906 L -1.132812 -41.417969 L 116.664062 -206.679688 L 127.347656 -199.066406 L 127.347656 -185.945312 L 30.085938 -185.945312 C 26.078125 -185.945312 22.449219 -186.792969 19.207031 -188.484375 C 15.628906 -190.351562 12.796875 -193.074219 10.707031 -196.652344 C 7.882812 -201.496094 6.472656 -208.128906 6.472656 -216.558594 L 6.472656 -227.402344 C 6.472656 -235.832031 7.882812 -242.46875 10.707031 -247.308594 C 12.796875 -250.886719 15.628906 -253.613281 19.207031 -255.480469 C 22.449219 -257.171875 26.078125 -258.015625 30.085938 -258.015625 L 189.96875 -258.015625 C 195.859375 -258.015625 200.808594 -255.097656 204.8125 -249.253906 C 206.824219 -246.324219 208.773438 -242.3125 210.664062 -237.21875 C 214.246094 -227.582031 216.035156 -219.414062 216.035156 -212.710938 C 216.035156 -209.246094 215.457031 -206.359375 214.300781 -204.042969 L 213.84375 -203.132812 L 96.402344 -38.21875 L 85.714844 -45.832031 L 85.714844 -58.949219 L 192.417969 -58.949219 C 196.429688 -58.949219 200.054688 -58.105469 203.296875 -56.414062 C 206.875 -54.546875 209.710938 -51.824219 211.796875 -48.242188 C 214.621094 -43.402344 216.035156 -36.765625 216.035156 -28.339844 L 216.035156 -17.492188 C 216.035156 -9.0625 214.621094 -2.429688 211.796875 2.414062 C 209.710938 5.992188 206.875 8.714844 203.296875 10.582031 C 200.054688 12.273438 196.429688 13.121094 192.417969 13.121094 Z M 23.089844 -13.121094 L 192.417969 -13.121094 C 192.140625 -13.121094 191.722656 -12.972656 191.160156 -12.679688 C 190.265625 -12.214844 189.589844 -11.589844 189.132812 -10.808594 L 189.109375 -10.8125 C 189.214844 -11.117188 189.308594 -11.511719 189.398438 -11.996094 C 189.664062 -13.429688 189.792969 -15.257812 189.792969 -17.492188 L 189.792969 -28.339844 C 189.792969 -30.570312 189.664062 -32.402344 189.398438 -33.832031 C 189.308594 -34.320312 189.214844 -34.714844 189.109375 -35.019531 L 189.132812 -35.023438 C 189.589844 -34.242188 190.265625 -33.617188 191.160156 -33.148438 C 191.722656 -32.855469 192.140625 -32.710938 192.417969 -32.710938 L 60.265625 -32.710938 L 191.878906 -217.523438 L 202.566406 -209.910156 L 190.828125 -215.777344 C 190.277344 -214.671875 189.9375 -213.609375 189.808594 -212.589844 C 189.796875 -212.5 189.792969 -212.4375 189.789062 -212.402344 C 189.792969 -212.476562 189.792969 -212.578125 189.792969 -212.710938 C 189.792969 -216.269531 188.550781 -221.394531 186.066406 -228.082031 C 184.925781 -231.152344 183.960938 -233.265625 183.171875 -234.417969 L 183.179688 -234.425781 C 183.394531 -234.183594 183.664062 -233.941406 183.992188 -233.691406 C 185.671875 -232.414062 187.664062 -231.777344 189.96875 -231.777344 L 30.085938 -231.777344 C 30.367188 -231.777344 30.785156 -231.921875 31.34375 -232.214844 C 32.242188 -232.683594 32.917969 -233.308594 33.375 -234.089844 L 33.394531 -234.085938 C 33.292969 -233.78125 33.195312 -233.382812 33.105469 -232.898438 C 32.84375 -231.46875 32.710938 -229.636719 32.710938 -227.402344 L 32.710938 -216.558594 C 32.710938 -214.324219 32.84375 -212.492188 33.105469 -211.0625 C 33.195312 -210.578125 33.292969 -210.183594 33.394531 -209.878906 L 33.375 -209.875 C 32.917969 -210.65625 32.242188 -211.28125 31.34375 -211.746094 C 30.785156 -212.039062 30.367188 -212.1875 30.085938 -212.1875 L 152.808594 -212.1875 L 20.828125 -27.019531 L 10.144531 -34.636719 L 21.878906 -28.769531 C 22.335938 -29.683594 22.566406 -30.472656 22.566406 -31.136719 C 22.566406 -27.703125 23.824219 -22.863281 26.335938 -16.625 C 27.472656 -13.808594 28.425781 -11.894531 29.199219 -10.875 C 29.074219 -11.042969 28.777344 -11.28125 28.3125 -11.597656 C 26.8125 -12.613281 25.070312 -13.121094 23.089844 -13.121094 Z M 23.089844 -13.121094 "/>
            </g>
        </g>
    </g>
    <g fill="#4f46e5" fill-opacity="1">
        <g transform="translate(1125.227624, 876.374905)">
            <g>
                <path d="M 23.09375 0 C 20.289062 0 17.316406 -3.90625 14.171875 -11.71875 C 11.023438 -19.53125 9.453125 -26.003906 9.453125 -31.140625 C 9.453125 -32.535156 9.679688 -33.703125 10.140625 -34.640625 L 127.34375 -199.0625 L 30.09375 -199.0625 C 26.351562 -199.0625 23.664062 -200.460938 22.03125 -203.265625 C 20.40625 -206.066406 19.59375 -210.5 19.59375 -216.5625 L 19.59375 -227.40625 C 19.59375 -233.46875 20.40625 -237.898438 22.03125 -240.703125 C 23.664062 -243.503906 26.351562 -244.90625 30.09375 -244.90625 L 189.96875 -244.90625 C 192.539062 -244.90625 195.34375 -240.820312 198.375 -232.65625 C 201.40625 -224.488281 202.921875 -217.84375 202.921875 -212.71875 C 202.921875 -211.3125 202.800781 -210.378906 202.5625 -209.921875 L 85.71875 -45.828125 L 192.421875 -45.828125 C 196.148438 -45.828125 198.832031 -44.425781 200.46875 -41.625 C 202.101562 -38.832031 202.921875 -34.40625 202.921875 -28.34375 L 202.921875 -17.5 C 202.921875 -11.425781 202.101562 -6.988281 200.46875 -4.1875 C 198.832031 -1.394531 196.148438 0 192.421875 0 Z M 23.09375 0 "/>
            </g>
        </g>
    </g>
</svg>